<svg xmlns="http://www.w3.org/2000/svg" x="0px" y="0px" viewBox="0 0 150 136"><g><path fill="#53B0E2" d="M58.757,56.706c0-16.226-13.153-29.38-29.379-29.38C13.153,27.326,0,40.48,0,56.706 C0,72.93,13.153,86.083,29.378,86.083h29.379V56.706z"/><path fill="#EE3F42" d="M104.252,0C80.479,0,61.208,19.271,61.208,43.042v43.041h43.044c23.771,0,43.042-19.27,43.042-43.041 S128.023,0,104.252,0z"/><path fill="#8DD7F7" d="M96,105.684c0-9.607-7.789-17.396-17.396-17.396H61.208v17.396c0,9.608,7.79,17.396,17.396,17.396 C88.211,123.079,96,115.292,96,105.684z"/><path fill="#3FBFC4" d="M12.539,111.397c0,12.766,10.344,23.111,23.109,23.111c12.763,0,23.109-10.346,23.109-23.111V88.288H35.647	C22.882,88.288,12.539,98.634,12.539,111.397z"/></g></svg>
